PathFileType	4	(X/Y/Z)	C:/Users/opensim2020/Desktop/walking_exp_matlab/subject06_walking11_run.trc	
DataRate	CameraRate	NumFrames	NumMarkers	Units	OrigDataRate	OrigDataStartFrame	OrigNumFrames	
100.00	100.00	4	46	mm	100.00	239	106	
Frame#	Time	LKNE			RKNE			RFRM			RWRA			RWRB			RELB			RUPA			RSHO			LWRA			RFIN			RFHD			CLAV			RASI			RTHI			LSHO			LTHI			RBHD			C7			LTIB			LANK			LTOE			LBHD			RTIB			RBAK			LHEE			RANK			STRN			RHEE			RTOE			T10			LUPA			LFHD			LPSI			RPSI			LASI			LFRM			LWRB			LFIN			LELB			*39			*40			*41			*42			*43			*44			*45			
		X1	Y1	Z1	X2	Y2	Z2	X3	Y3	Z3	X4	Y4	Z4	X5	Y5	Z5	X6	Y6	Z6	X7	Y7	Z7	X8	Y8	Z8	X9	Y9	Z9	X10	Y10	Z10	X11	Y11	Z11	X12	Y12	Z12	X13	Y13	Z13	X14	Y14	Z14	X15	Y15	Z15	X16	Y16	Z16	X17	Y17	Z17	X18	Y18	Z18	X19	Y19	Z19	X20	Y20	Z20	X21	Y21	Z21	X22	Y22	Z22	X23	Y23	Z23	X24	Y24	Z24	X25	Y25	Z25	X26	Y26	Z26	X27	Y27	Z27	X28	Y28	Z28	X29	Y29	Z29	X30	Y30	Z30	X31	Y31	Z31	X32	Y32	Z32	X33	Y33	Z33	X34	Y34	Z34	X35	Y35	Z35	X36	Y36	Z36	X37	Y37	Z37	X38	Y38	Z38	X39	Y39	Z39	X40	Y40	Z40	X41	Y41	Z41	X42	Y42	Z42	X43	Y43	Z43	X44	Y44	Z44	X45	Y45	Z45	X46	Y46	Z46	

54	0.530	112.32719	221.40189	442.19556	354.69125	326.49966	470.56812	505.03995	170.47415	1080.97729	415.43323	273.44440	1049.24500	459.38196	260.79333	998.61859	521.10138	103.56931	1164.01270	470.22614	132.61255	1255.21375	344.59253	247.67557	1368.41589	42.16961	329.60126	1079.04102	431.59537	336.13733	995.05011	255.29637	316.36554	1600.53955	194.11432	307.07352	1311.72961	340.95877	247.77315	896.36823	386.41806	273.66284	584.55701	29.05525	254.53752	1344.53784	73.13982	188.96970	599.38025	238.69145	190.63487	1537.84875	177.40858	201.77812	1399.11035	140.94327	106.13379	215.43494	200.76247	22.56684	70.77979	218.84898	157.12656	34.78193	109.99646	205.01662	1539.22144	365.54575	121.83834	347.32614	263.36667	102.03080	1251.63037	242.18193	-26.23015	74.13279	342.15689	-50.75740	277.84296	205.18980	323.09180	1128.35815	299.57272	-98.14095	294.21899	354.80154	2.04322	137.81337	227.32018	114.23381	1087.51709	-79.48195	198.73421	1183.68152	123.25781	331.18060	1607.61694	158.36577	89.48431	954.78015	325.73273	103.89516	945.27014	125.21584	239.20552	898.48846	-61.49038	265.48087	1036.03442	23.92393	338.26608	1011.42218	72.19688	409.73178	1037.92053	-122.37019	168.21109	1094.68359				168.77800	220.87399	1637.08093															 
55	0.540	111.78108	235.08508	436.29895	352.66916	386.60114	484.81302	506.97232	193.11369	1086.82202	420.95749	300.21341	1056.12366	462.92477	285.26025	1004.88928	520.14203	127.56776	1170.86877	467.42139	160.43825	1260.42444	344.09982	281.39401	1368.15295	47.97122	377.92908	1087.52576	438.13712	362.05884	1001.32324	256.41040	352.49060	1600.36292	195.84438	345.30444	1311.05945	342.15967	282.20129	897.37463	385.67786	325.13385	594.26147	30.72286	297.16833	1345.18762	74.43491	211.11589	595.73999	238.90294	227.32520	1536.34070	176.92516	239.34470	1397.91736	140.42838	111.79478	214.80780	198.88042	22.96574	73.56532	218.89259	156.39854	34.62076	110.23801	242.69765	1537.58875	365.16943	190.62450	348.11130	258.57968	138.27284	1250.48950	239.31461	-26.25709	79.14947	342.14832	21.96065	267.96777	206.26402	360.23746	1127.58740	299.75922	-26.99254	281.35837	353.29626	84.44220	132.20941	223.88290	151.01138	1086.88440	-79.50863	246.39868	1183.11194	124.21449	368.16345	1607.19055	157.47075	125.99446	954.09814	324.35486	139.91388	946.01367	124.21340	274.73138	896.19965	-56.48146	319.01392	1039.26282	31.09103	390.13873	1019.99127	81.07797	458.14737	1050.34692	-121.93565	220.80394	1092.99438				168.85043	257.17343	1635.62427															 
56	0.550	111.73140	249.06577	432.69489	350.91757	443.64099	501.83810	507.12488	217.42703	1096.82825	424.20734	327.53848	1067.19385	464.57468	311.80994	1015.39349	518.25391	152.38533	1180.46472	464.51035	188.82253	1267.92188	343.71689	315.07248	1370.51733	53.37354	424.13434	1099.45642	442.50394	389.62305	1012.78308	257.63614	388.87521	1602.13135	197.88443	383.70859	1312.43835	342.27893	318.43408	901.09186	384.82129	374.59323	606.05170	32.25459	338.94217	1348.11206	75.71823	233.18571	593.54639	239.56131	264.51007	1536.83228	176.49239	277.39645	1398.95264	139.81166	117.96374	216.12738	196.56987	24.02468	78.13149	218.70789	155.82909	34.39317	110.96541	280.46661	1537.86646	363.85483	258.49866	349.99277	254.24500	175.11786	1251.29626	236.32948	-24.63422	85.42449	340.32849	95.75890	257.13779	207.67792	397.51038	1128.86353	298.52518	45.69707	267.10886	350.33981	169.12544	127.26731	220.21622	188.15361	1087.83997	-79.09992	294.23456	1184.61719	125.34240	405.08417	1608.77271	155.56149	163.35023	954.93738	322.28360	176.79578	949.02655	123.01073	311.10812	895.44769	-51.56455	370.57971	1046.32922	38.68579	440.26953	1032.20313	89.74657	504.42157	1067.15991	-121.03063	272.22562	1093.58948				169.18608	293.79349	1636.19348															 
57	0.560	112.09690	263.74747	431.91702	349.47833	496.93152	520.63013	505.56607	244.05351	1110.48682	425.39334	355.90735	1080.94299	465.74405	340.31946	1029.10889	515.17102	178.51097	1191.69727	461.31061	217.92624	1277.05469	343.45694	348.99088	1374.89355	58.11166	468.38510	1113.80933	444.71475	419.06024	1027.75793	258.46774	425.53650	1605.82849	200.01408	422.12497	1315.93408	341.02289	356.16907	906.44324	384.22556	421.96115	619.25970	33.64027	380.47025	1352.56665	76.81998	256.85645	594.22369	240.66228	302.11343	1539.46252	176.08397	316.08441	1402.30200	138.99855	124.73442	219.94617	194.18719	26.49302	84.84255	218.26428	155.90041	34.38504	112.16989	318.22330	1540.35901	361.80591	325.07932	352.57239	250.54836	212.28960	1254.39771	233.36324	-22.32371	95.04699	337.29440	170.28609	246.38457	209.51802	435.16318	1132.26636	295.56424	119.44130	252.39523	345.51074	254.88393	123.34708	216.18620	226.12344	1091.06311	-78.00005	341.49612	1187.99792	126.64507	442.20938	1612.45276	153.08661	201.61481	957.37195	320.04239	214.55833	953.68903	121.55563	348.42642	896.00665	-46.49453	420.30585	1055.69580	46.54839	487.68137	1046.81567	97.77901	548.81213	1086.32190	-119.88401	322.47452	1096.52539				170.18245	330.55133	1638.87451															 
